<svg xmlns="http://www.w3.org/2000/svg" xmlns:xlink="http://www.w3.org/1999/xlink" viewBox="0 0 120 120" width="120" height="120">
  <defs>
    <clipPath id="hexClip2"><path d="M60,18 L96.37,39 L96.37,81 L60,102 L23.63,81 L23.63,39 Z"/></clipPath>
    <pattern id="weave2" width="14" height="14" patternUnits="userSpaceOnUse" patternTransform="rotate(45)">
      <rect width="14" height="14" fill="#1F4D3D"/>
      <rect width="7" height="14" fill="#1C4839"/>
      <line x1="0" y1="0" x2="0" y2="14" stroke="#E8A33D" stroke-width="2.4" opacity="0.55"/>
      <line x1="7" y1="0" x2="7" y2="14" stroke="#C75D3A" stroke-width="2.4" opacity="0.5"/>
    </pattern>
    <path id="ringtext2" d="M60,6 A54,54 0 0 1 60,114 A54,54 0 0 1 60,6"/>
  </defs>

  <rect x="2" y="2" width="116" height="116" rx="26" fill="#0B1F1A"/>
  <circle cx="60" cy="60" r="55" fill="none" stroke="#CFC8B4" stroke-width="0.7" opacity="0.35"/>
  <circle cx="60" cy="60" r="49" fill="none" stroke="#E8A33D" stroke-width="1" stroke-dasharray="1.5 4" opacity="0.55"/>

  <text font-family="'Space Mono', monospace" font-size="6.2" letter-spacing="2.5" fill="#CFC8B4" opacity="0.8">
    <textPath href="#ringtext2" xlink:href="#ringtext2" startOffset="1%">NEXLITE · DIGITAL SOLUTIONS · NEXLITE · DIGITAL SOLUTIONS ·</textPath>
  </text>

  <path d="M60,18 L96.37,39 L96.37,81 L60,102 L23.63,81 L23.63,39 Z" fill="url(#weave2)" clip-path="url(#hexClip2)"/>
  <path d="M60,18 L96.37,39 L96.37,81 L60,102 L23.63,81 L23.63,39 Z" fill="none" stroke="#F7F3E8" stroke-width="1" opacity="0.5"/>

  <rect x="44" y="40" width="8" height="40" fill="#F7F3E8"/>
  <rect x="68" y="40" width="8" height="40" fill="#F7F3E8"/>
  <path d="M48,40 L56,40 L72,80 L64,80 Z" fill="#F7F3E8"/>
  <circle cx="56" cy="40" r="3" fill="#E8A33D"/>
  <circle cx="64" cy="80" r="3" fill="#C75D3A"/>
</svg>
